<svg id="Layer_1" data-name="Layer 1" xmlns="http://www.w3.org/2000/svg" viewBox="0 0 256 272"><defs><style>.cls-1{fill:#8cc84b;}</style></defs><path class="cls-1" d="M1143.69,1009.78a24.34,24.34,0,0,1,23,0q52.55,28.56,105.08,57.12a20.68,20.68,0,0,1,10.92,17.93v114.58c0,7.61-4.79,14.83-11.74,18.32q-52.37,28.41-104.7,56.85A23.69,23.69,0,0,1,1143,1274q-15.69-8.76-31.41-17.48c-2.14-1.23-4.55-2.21-6.06-4.2,1.33-1.74,3.72-2,5.66-2.71a74.08,74.08,0,0,0,12.39-5.56,3,3,0,0,1,3.23.18c9,4.94,17.82,10,26.8,14.91,1.91,1.07,3.85-.34,5.49-1.22q51.39-28,102.81-55.84a3.24,3.24,0,0,0,1.86-3.22q0-56.7,0-113.41a3.51,3.51,0,0,0-2.19-3.53q-52.18-28.29-104.34-56.6a3.74,3.74,0,0,0-4.1,0q-52.17,28.31-104.32,56.62a3.5,3.5,0,0,0-2.21,3.52q0,56.7,0,113.42a3.2,3.2,0,0,0,1.89,3.18q13.92,7.59,27.87,15.14c5.23,2.71,11.65,4.32,17.42,2.25a12.75,12.75,0,0,0,8.55-12c.05-37.58,0-75.17,0-112.74a2.89,2.89,0,0,1,3.2-2.89c4.46,0,8.93-.06,13.39,0a3,3,0,0,1,2.91,3.43c0,37.82,0,75.64,0,113.46,0,10.08-4.29,21-14,26-11.93,6-26.68,4.68-38.47-1-10.21-4.9-20-10.69-30-15.94-7-3.47-11.79-10.72-11.74-18.32V1084.83a20.77,20.77,0,0,1,11.3-18.16Z" transform="translate(-1027.69 -1006.89)"/><path class="cls-1" d="M1174.14,1089.15c15.22-.94,31.52-.56,45.21,6.66,10.61,5.53,16.49,17.14,16.68,28.48a3.21,3.21,0,0,1-3.48,2.27c-4.41,0-8.83.06-13.25,0-1.87.07-3-1.59-3.2-3.19-1.27-5.42-4.34-10.8-9.65-13.41-8.14-3.93-17.59-3.73-26.47-3.65-6.48.33-13.46.87-19,4.54-4.22,2.78-5.5,8.39-4,12.91,1.42,3.25,5.31,4.29,8.49,5.26,18.35,4.62,37.79,4.16,55.78,10.23,7.45,2.48,14.74,7.3,17.29,14.8,3.34,10.07,1.87,22.09-5.56,30.17-6,6.65-14.82,10.26-23.58,12.23-11.66,2.5-23.76,2.56-35.59,1.45-11.14-1.22-22.72-4-31.31-11.33-7.35-6.14-10.94-15.71-10.58-24.94a2.94,2.94,0,0,1,3.25-2.52c4.45,0,8.89,0,13.34,0a3.08,3.08,0,0,1,3.19,3c.82,5.17,2.83,10.6,7.52,13.66,9,5.61,20.38,5.23,30.73,5.39,8.58-.37,18.2-.48,25.2-5.94,3.69-3.11,4.79-8.31,3.79-12.79-1.08-3.78-5.19-5.54-8.72-6.69-18.11-5.52-37.77-3.52-55.7-9.75-7.28-2.48-14.33-7.16-17.12-14.36-3.91-10.19-2.12-22.79,6.1-30.59,8-7.77,19.58-10.76,30.58-11.83Z" transform="translate(-1027.69 -1006.89)"/></svg>