<svg id="Layer_1" data-name="Layer 1" xmlns="http://www.w3.org/2000/svg" viewBox="0 0 365 324.7"><defs><style>.cls-1{fill:#00d8ff;}</style></defs><path class="cls-1" d="M367.6,192.9c-3.8-1.3-7.7-2.5-11.7-3.7.7-2.7,1.3-5.4,1.8-8,8.9-43.2,3.1-78-16.8-89.4-19-11-50.2.5-81.6,27.8-3,2.6-6.1,5.4-9.1,8.3-2-1.9-4-3.8-6-5.6-33-29.3-66-41.6-85.8-30.1-19,11-24.7,43.7-16.7,84.6.8,4,1.7,8,2.7,12.1q-7.05,1.95-13.5,4.2c-38.6,13.5-63.3,34.6-63.3,56.5,0,22.6,26.5,45.3,66.7,59.1,3.2,1.1,6.5,2.1,9.9,3.1-1.1,4.4-2.1,8.8-2.9,13-7.6,40.2-1.7,72.1,17.3,83.1,19.6,11.3,52.5-.3,84.5-28.3,2.5-2.2,5.1-4.6,7.6-7q5,4.8,9.9,9c31,26.7,61.7,37.5,80.6,26.5,19.6-11.3,25.9-45.6,17.7-87.4-.6-3.2-1.4-6.4-2.2-9.8,2.3-.7,4.6-1.4,6.8-2.1,41.8-13.9,69.1-36.3,69.1-59.2C432.5,227.7,407,206.5,367.6,192.9Zm-9.1,101.2c-2,.7-4,1.3-6.1,1.9a364.5,364.5,0,0,0-18.5-46.2,361.75,361.75,0,0,0,17.8-45.6c3.7,1.1,7.4,2.2,10.9,3.4,33.8,11.6,54.4,28.8,54.4,42.1C416.9,263.8,394.7,282.1,358.5,294.1Zm-15,29.7c3.7,18.5,4.2,35.1,1.8,48.2-2.2,11.7-6.5,19.5-12,22.7-11.5,6.7-36.1-2-62.6-24.8-3-2.6-6.1-5.4-9.2-8.4a357.08,357.08,0,0,0,30.6-38.8,368.8,368.8,0,0,0,49.4-7.6C342.3,318,343,320.9,343.5,323.8ZM191.9,393.5c-11.2,4-20.2,4.1-25.6,1-11.5-6.6-16.3-32.3-9.8-66.7.7-3.9,1.6-8,2.7-12.1a363.42,363.42,0,0,0,49.2,7.1,384.27,384.27,0,0,0,31.3,38.7c-2.3,2.2-4.6,4.4-7,6.4C218.6,380.3,204.4,389.1,191.9,393.5ZM139.3,294c-17.8-6.1-32.5-14-42.6-22.6-9.1-7.8-13.6-15.4-13.6-21.7,0-13.3,19.8-30.2,52.9-41.8,4-1.4,8.2-2.7,12.6-4A381,381,0,0,0,166.4,250a375.51,375.51,0,0,0-18,46.8C145.2,295.9,142.2,295,139.3,294Zm17.6-120.1c-6.9-35.1-2.3-61.5,9.2-68.1,12.2-7.1,39.2,3,67.7,28.3,1.8,1.6,3.6,3.3,5.5,5.1a377.56,377.56,0,0,0-31.1,38.5,368.06,368.06,0,0,0-48.7,7.6C158.5,181.3,157.7,177.5,156.9,173.9Zm157.5,38.8q-5.4-9.3-11.1-18.3c11.6,1.5,22.8,3.4,33.3,5.8a322.32,322.32,0,0,1-11.7,31.4C321.6,225.5,318.1,219.1,314.4,212.7Zm-64.2-62.5c7.2,7.8,14.4,16.5,21.5,25.9-7.1-.3-14.4-.5-21.7-.5s-14.4.2-21.5.5C235.6,166.8,242.9,158.1,250.2,150.2Zm-64.6,62.7c-3.6,6.3-7,12.6-10.3,18.9-4.5-10.8-8.4-21.4-11.6-31.6,10.4-2.3,21.5-4.2,33.1-5.7-3.9,5.9-7.6,12.1-11.2,18.4ZM197.1,306a311,311,0,0,1-33.6-5.4c3.2-10.4,7.2-21.2,11.8-32.2,3.3,6.3,6.7,12.6,10.3,18.9h0C189.3,293.7,193.1,299.9,197.1,306Zm53.5,44.3c-7.4-8-14.8-16.8-22-26.3,7,.3,14.1.4,21.4.4s14.8-.2,22-.5A339.53,339.53,0,0,1,250.6,350.3ZM325,267.8a336,336,0,0,1,12.3,32.1,324.73,324.73,0,0,1-34,5.8c3.8-6,7.5-12.2,11.2-18.6S321.7,274.3,325,267.8Zm-24.1,11.6c-5.7,9.9-11.6,19.3-17.5,28.3-10.8.8-22,1.2-33.4,1.2s-22.4-.4-33-1c-6.2-9-12.2-18.5-17.8-28.3h0q-8.55-14.7-15.6-29.4c4.7-9.8,9.9-19.7,15.5-29.4h0c5.6-9.8,11.6-19.2,17.7-28.2,10.9-.8,22-1.2,33.2-1.2h0c11.3,0,22.4.4,33.3,1.3,6,8.9,11.9,18.3,17.6,28.1s11,19.7,15.7,29.3C311.9,259.6,306.6,269.5,300.9,279.4Zm32.2-174.1c12.2,7,17,35.5,9.3,72.8-.5,2.4-1,4.8-1.6,7.3a369.27,369.27,0,0,0-48.8-7.7,348.68,348.68,0,0,0-30.9-38.5c2.8-2.7,5.6-5.3,8.4-7.7C296.4,107.9,321.6,98.7,333.1,105.3ZM250,217.1a32.6,32.6,0,1,1-32.6,32.6A32.61,32.61,0,0,1,250,217.1Z" transform="translate(-67.6 -87.66)"/></svg>